<?xml version="1.0" encoding="UTF-8"?>
<!DOCTYPE svg PUBLIC "-//W3C//DTD SVG 1.1//EN" "http://www.w3.org/Graphics/SVG/1.1/DTD/svg11.dtd">
<!-- Creator: CorelDRAW -->
<svg xmlns="http://www.w3.org/2000/svg" xml:space="preserve" width="210mm" height="297mm" style="shape-rendering:geometricPrecision; text-rendering:geometricPrecision; image-rendering:optimizeQuality; fill-rule:evenodd; clip-rule:evenodd"
viewBox="0 0 210 297">
 <defs>
  <style type="text/css">
   <![CDATA[
    .str0 {stroke:white;stroke-width:5.6444}
    .fil0 {fill:none}
    .fil1 {fill:#FFF500}
   ]]>
  </style>
 </defs>
 <g id="Ebene_x0020_1">
  <metadata id="CorelCorpID_0Corel-Layer"/>
  <path class="fil0 str0" d="M56.6051 282.374c14.9144,16.8108 19.8958,35.0049 13.3273,48.7109 -11.1187,23.2009 -51.4519,27.008 -90.068,8.5016 -38.6159,-18.5062 -60.9153,-52.3292 -49.7966,-75.53 5.3393,-11.1412 17.8414,-18.3012 34.7201,-19.8944"/>
  <circle class="fil1" cx="-3.14505" cy="290.135" r="11.5588"/>
  <path class="fil0 str0" d="M40.6931 304.286c-0.0657,2.421 -0.604,4.7046 -1.5944,6.7713 -6.2658,13.0743 -28.9946,15.2197 -50.7558,4.7909 -21.7611,-10.4288 -34.3274,-29.4889 -28.0617,-42.5632 6.2656,-13.0743 28.9945,-15.2197 50.7556,-4.7909 4.5947,2.202 8.9279,4.8757 12.7919,7.8863"/>
 </g>
</svg>
